[Header]
FileType HTR
DataType HTRS
FileVersion 1
NumSegments 64
NumFrames 4
DataFrameRate 30
EulerRotationOrder ZYX
CalibrationUnits mm
RotationUnits Degrees
GlobalAxisofGravity Y
BoneLengthAxis Y
ScaleFactor 1.0
[SegmentNames&Hierarchy]
Hips	GLOBAL
Spine	Hips
Spine1	Spine
Spine2	Spine1
Neck	Spine2
Head	Neck
LeftEye	Head
RightEye	Head
LeftShoulder	Spine2
LeftArm	LeftShoulder
LeftForeArm	LeftArm
LeftHand	LeftForeArm
LeftHandThumb1	LeftHand
LeftHandThumb2	LeftHandThumb1
LeftHandThumb3	LeftHandThumb2
LeftHandThumb4	LeftHandThumb3
LeftHandIndex1	LeftHand
LeftHandIndex2	LeftHandIndex1
LeftHandIndex3	LeftHandIndex2
LeftHandIndex4	LeftHandIndex3
LeftHandMiddle1	LeftHand
LeftHandMiddle2	LeftHandMiddle1
LeftHandMiddle3	LeftHandMiddle2
LeftHandMiddle4	LeftHandMiddle3
LeftHandRing1	LeftHand
LeftHandRing2	LeftHandRing1
LeftHandRing3	LeftHandRing2
LeftHandRing4	LeftHandRing3
LeftHandPinky1	LeftHand
LeftHandPinky2	LeftHandPinky1
LeftHandPinky3	LeftHandPinky2
LeftHandPinky4	LeftHandPinky3
RightShoulder	Spine2
RightArm	RightShoulder
RightForeArm	RightArm
RightHand	RightForeArm
RightHandPinky1	RightHand
RightHandPinky2	RightHandPinky1
RightHandPinky3	RightHandPinky2
RightHandPinky4	RightHandPinky3
RightHandRing1	RightHand
RightHandRing2	RightHandRing1
RightHandRing3	RightHandRing2
RightHandRing4	RightHandRing3
RightHandMiddle1	RightHand
RightHandMiddle2	RightHandMiddle1
RightHandMiddle3	RightHandMiddle2
RightHandMiddle4	RightHandMiddle3
RightHandIndex1	RightHand
RightHandIndex2	RightHandIndex1
RightHandIndex3	RightHandIndex2
RightHandIndex4	RightHandIndex3
RightHandThumb1	RightHand
RightHandThumb2	RightHandThumb1
RightHandThumb3	RightHandThumb2
RightHandThumb4	RightHandThumb3
LeftUpLeg	Hips
LeftLeg	LeftUpLeg
LeftFoot	LeftLeg
LeftToeBase	LeftFoot
RightUpLeg	Hips
RightLeg	RightUpLeg
RightFoot	RightLeg
RightToeBase	RightFoot
[BasePosition]
Hips	0	0	0	0	0	0	1
Spine	0	0	0	0	0	0	1
Spine1	0	0	0	0	0	0	1
Spine2	0	0	0	0	0	0	1
Neck	0	0	0	0	0	0	1
Head	0	0	0	0	0	0	1
LeftEye	0	0	0	0	0	0	1
RightEye	0	0	0	0	0	0	1
LeftShoulder	0	0	0	0	0	0	1
LeftArm	0	0	0	0	0	0	1
LeftForeArm	0	0	0	0	0	0	1
LeftHand	0	0	0	0	0	0	1
LeftHandThumb1	0	0	0	0	0	0	1
LeftHandThumb2	0	0	0	0	0	0	1
LeftHandThumb3	0	0	0	0	0	0	1
LeftHandThumb4	0	0	0	0	0	0	1
LeftHandIndex1	0	0	0	0	0	0	1
LeftHandIndex2	0	0	0	0	0	0	1
LeftHandIndex3	0	0	0	0	0	0	1
LeftHandIndex4	0	0	0	0	0	0	1
LeftHandMiddle1	0	0	0	0	0	0	1
LeftHandMiddle2	0	0	0	0	0	0	1
LeftHandMiddle3	0	0	0	0	0	0	1
LeftHandMiddle4	0	0	0	0	0	0	1
LeftHandRing1	0	0	0	0	0	0	1
LeftHandRing2	0	0	0	0	0	0	1
LeftHandRing3	0	0	0	0	0	0	1
LeftHandRing4	0	0	0	0	0	0	1
LeftHandPinky1	0	0	0	0	0	0	1
LeftHandPinky2	0	0	0	0	0	0	1
LeftHandPinky3	0	0	0	0	0	0	1
LeftHandPinky4	0	0	0	0	0	0	1
RightShoulder	0	0	0	0	0	0	1
RightArm	0	0	0	0	0	0	1
RightForeArm	0	0	0	0	0	0	1
RightHand	0	0	0	0	0	0	1
RightHandPinky1	0	0	0	0	0	0	1
RightHandPinky2	0	0	0	0	0	0	1
RightHandPinky3	0	0	0	0	0	0	1
RightHandPinky4	0	0	0	0	0	0	1
RightHandRing1	0	0	0	0	0	0	1
RightHandRing2	0	0	0	0	0	0	1
RightHandRing3	0	0	0	0	0	0	1
RightHandRing4	0	0	0	0	0	0	1
RightHandMiddle1	0	0	0	0	0	0	1
RightHandMiddle2	0	0	0	0	0	0	1
RightHandMiddle3	0	0	0	0	0	0	1
RightHandMiddle4	0	0	0	0	0	0	1
RightHandIndex1	0	0	0	0	0	0	1
RightHandIndex2	0	0	0	0	0	0	1
RightHandIndex3	0	0	0	0	0	0	1
RightHandIndex4	0	0	0	0	0	0	1
RightHandThumb1	0	0	0	0	0	0	1
RightHandThumb2	0	0	0	0	0	0	1
RightHandThumb3	0	0	0	0	0	0	1
RightHandThumb4	0	0	0	0	0	0	1
LeftUpLeg	0	0	0	0	0	0	1
LeftLeg	0	0	0	0	0	0	1
LeftFoot	0	0	0	0	0	0	1
LeftToeBase	0	0	0	0	0	0	1
RightUpLeg	0	0	0	0	0	0	1
RightLeg	0	0	0	0	0	0	1
RightFoot	0	0	0	0	0	0	1
RightToeBase	0	0	0	0	0	0	1
[Hips]
5	3.138706446	1031.614014	19.90287971	-2.702898741	-5.55741787	-3.614356995	1.0
6	3.663178921	1030.871094	21.55170822	-2.468903065	-5.616024017	-3.674805164	1.0
7	4.177865982	1030.263672	23.08130646	-2.192876339	-5.691533089	-3.752906322	1.0
8	4.590427876	1029.88269	24.25218582	-1.861801386	-5.779296875	-3.853692532	1.0
[Spine]
5	0	101.8159943	1.315000057	3.377338171	1.39672482	2.84133935	1.0
6	0	101.8159943	1.315000057	3.37782073	1.402033687	2.854160786	1.0
7	0	101.8159943	1.315000057	3.393322229	1.3977772	2.874186516	1.0
8	0	101.8159943	1.315000057	3.423460722	1.370740056	2.895357132	1.0
[Spine1]
5	0	100.8349991	-10.00800037	1.174155474	0.3310597837	1.569221854	1.0
6	0	100.8349991	-10.00800037	1.179567575	0.3366023898	1.578976512	1.0
7	0	100.8349991	-10.00800037	1.201906681	0.3276264966	1.5883255	1.0
8	0	100.8349991	-10.00800037	1.254375577	0.2852402925	1.585379839	1.0
[Spine2]
5	0	91	-13.73399925	1.14889133	0.3461833298	1.57623291	1.0
6	0	91	-13.73399925	1.15425241	0.3521128595	1.586112857	1.0
7	0	91	-13.73399925	1.176431537	0.3421310484	1.595827818	1.0
8	0	91	-13.73399925	1.228549361	0.2989963889	1.592236996	1.0
[Neck]
5	0	166.7169952	-25.16200066	5.445624352	-0.09666671604	0.4350052476	1.0
6	0	166.7169952	-25.16200066	5.409039021	-0.06517124921	0.416873455	1.0
7	0	166.7169952	-25.16200066	5.364117622	-0.02120193094	0.3762598336	1.0
8	0	166.7169952	-25.16200066	5.331892967	0.03396642208	0.2898539007	1.0
[Head]
5	0	96.17900085	16.84999847	-7.9437356	1.600189686	-0.5955414176	1.0
6	0	96.17900085	16.84999847	-8.048129082	1.788182259	-0.8156626225	1.0
7	0	96.17900085	16.84999847	-8.26540184	2.042709351	-1.18385613	1.0
8	0	96.17900085	16.84999847	-8.630712509	2.354723692	-1.814780712	1.0
[LeftEye]
5	30.6760006	64.09500122	92.83599854	0	0	0	1.0
6	30.6760006	64.09500122	92.83599854	0	0	0	1.0
7	30.6760006	64.09500122	92.83599854	0	0	0	1.0
8	30.6760006	64.09500122	92.83599854	0	0	0	1.0
[RightEye]
5	-30.6760006	64.09500122	92.83499908	0	0	0	1.0
6	-30.6760006	64.09500122	92.83499908	0	0	0	1.0
7	-30.6760006	64.09500122	92.83499908	0	0	0	1.0
8	-30.6760006	64.09500122	92.83499908	0	0	0	1.0
[LeftShoulder]
5	45.70400238	109.4599991	-26.28000069	4.901274204	-16.88524818	-13.1057024	1.0
6	45.70400238	109.4599991	-26.28000069	4.87749052	-16.79784584	-13.09213257	1.0
7	45.70400238	109.4599991	-26.28000069	4.843297482	-16.7056179	-13.02380466	1.0
8	45.70400238	109.4599991	-26.28000069	4.773804188	-16.68810081	-12.7303381	1.0
[LeftArm]
5	105.923996	-5.24600029	-22.32099915	20.3856163	-3.066640377	-71.02940369	1.0
6	105.923996	-5.24600029	-22.32099915	20.779953	-2.944624901	-70.92790985	1.0
7	105.923996	-5.24600029	-22.32099915	21.29357719	-2.709823132	-70.7458725	1.0
8	105.923996	-5.24600029	-22.32099915	21.69959259	-2.415118694	-70.60585022	1.0
[LeftForeArm]
5	278.414978	-0.0009999999311	0	4.92036861e-07	-1.816100359	-0.0002041966363	1.0
6	278.414978	-0.0009999999311	0	-6.91302057e-06	-2.254644156	-0.0002216834691	1.0
7	278.414978	-0.0009999999311	0	3.78998493e-07	-3.050587893	-0.0001980404777	1.0
8	278.414978	-0.0009999999311	0	1.418517854e-07	-4.153244019	-0.0001930904546	1.0
[LeftHand]
5	283.2879944	0	0	-33.24925232	-4.598240852	-4.335532665	1.0
6	283.2879944	0	0	-33.53303146	-4.617518425	-4.40691185	1.0
7	283.2879944	0	0	-34.02333832	-4.753196239	-4.573179722	1.0
8	283.2879944	0	0	-34.75601959	-5.185323238	-4.652337074	1.0
[LeftHandThumb1]
5	24.6609993	-15.75	26.8239994	-0.3811753988	1.974897861	4.52944994	1.0
6	24.6609993	-15.75	26.8239994	-0.6293514967	1.797487259	4.557102203	1.0
7	24.6609993	-15.75	26.8239994	-0.7546059489	1.683079123	4.548604488	1.0
8	24.6609993	-15.75	26.8239994	-0.4578015804	1.773087263	4.41227293	1.0
[LeftHandThumb2]
5	32.29800034	-18.64699936	18.64699936	19.8809433	19.81012154	23.33978653	1.0
6	32.29800034	-18.64699936	18.64699936	19.87816811	19.86397362	23.17212486	1.0
7	32.29800034	-18.64699936	18.64699936	19.8760128	19.88023376	23.04845619	1.0
8	32.29800034	-18.64699936	18.64699936	19.87803841	19.73838806	23.15837097	1.0
[LeftHandThumb3]
5	26.52600098	-15.31499958	15.31499958	-13.14988327	5.567500591	7.927977085	1.0
6	26.52600098	-15.31499958	15.31499958	-13.09399033	5.483179569	7.93871069	1.0
7	26.52600098	-15.31499958	15.31499958	-13.06878376	5.437879086	7.970270634	1.0
8	26.52600098	-15.31499958	15.31499958	-13.12811184	5.517235756	7.998011589	1.0
[LeftHandThumb4]
5	19.54599953	-11.28499985	11.28499985	0	0	0	1.0
6	19.54599953	-11.28499985	11.28499985	0	0	0	1.0
7	19.54599953	-11.28499985	11.28499985	0	0	0	1.0
8	19.54599953	-11.28499985	11.28499985	0	0	0	1.0
[LeftHandIndex1]
5	91.09299469	-5.170999527	22.60099792	0.2974832058	-0.9950440526	-7.025773525	1.0
6	91.09299469	-5.170999527	22.60099792	0.317741096	-1.030419588	-6.697057247	1.0
7	91.09299469	-5.170999527	22.60099792	0.3347706199	-1.044316888	-6.487627983	1.0
8	91.09299469	-5.170999527	22.60099792	0.34257254	-1.010442019	-6.511788368	1.0
[LeftHandIndex2]
5	36.76399994	0	0	-0.2663786411	1.744136453	-17.36586571	1.0
6	36.76399994	0	0	-0.2663781643	1.744139433	-17.36582947	1.0
7	36.76399994	0	0	-0.2663813829	1.744143724	-17.36582947	1.0
8	36.76399994	0	0	-0.266444236	1.74435091	-17.36798286	1.0
[LeftHandIndex3]
5	28.83100128	0	0	-0.05728653818	0.8163281679	-8.028371811	1.0
6	28.83100128	0	0	-0.05728617311	0.8163308501	-8.02836895	1.0
7	28.83100128	0	0	-0.05728496611	0.816327095	-8.028383255	1.0
8	28.83100128	0	0	-0.05732005462	0.8165717125	-8.030771255	1.0
[LeftHandIndex4]
5	23.92700005	0	0	0	0	0	1.0
6	23.92700005	0	0	0	0	0	1.0
7	23.92700005	0	0	0	0	0	1.0
8	23.92700005	0	0	0	0	0	1.0
[LeftHandMiddle1]
5	95.33399963	0	0	-0.730460465	2.723865509	-14.75392628	1.0
6	95.33399963	0	0	-0.6968748569	2.751379251	-14.24036217	1.0
7	95.33399963	0	0	-0.6719580889	2.754451752	-13.85567665	1.0
8	95.33399963	0	0	-0.6602913141	2.77942276	-13.67416763	1.0
[LeftHandMiddle2]
5	36.98199844	0	0	-0.2665070295	1.744544744	-17.37000275	1.0
6	36.98199844	0	0	-0.2651136518	1.740086436	-17.3241806	1.0
7	36.98199844	0	0	-0.2628313899	1.732760668	-17.24893761	1.0
8	36.98199844	0	0	-0.2603167593	1.724636555	-17.16548538	1.0
[LeftHandMiddle3]
5	29.50900078	0	0	-0.2980539799	1.842325926	-18.37807465	1.0
6	29.50900078	0	0	-0.2965954244	1.837931395	-18.33264732	1.0
7	29.50900078	0	0	-0.2942020595	1.830693841	-18.25782967	1.0
8	29.50900078	0	0	-0.2915624976	1.822667718	-18.17493439	1.0
[LeftHandMiddle4]
5	28.3390007	0	0	0	0	0	1.0
6	28.3390007	0	0	0	0	0	1.0
7	28.3390007	0	0	0	0	0	1.0
8	28.3390007	0	0	0	0	0	1.0
[LeftHandRing1]
5	91.04499817	-0.4390000105	-18.65100098	-1.173549414	3.42817378	-21.01493073	1.0
6	91.04499817	-0.4390000105	-18.65100098	-1.166519642	3.42057848	-20.92150497	1.0
7	91.04499817	-0.4390000105	-18.65100098	-1.164950132	3.418885231	-20.90064049	1.0
8	91.04499817	-0.4390000105	-18.65100098	-1.182471037	3.433339834	-21.13306046	1.0
[LeftHandRing2]
5	31.54000092	0	0	-0.3913004398	2.102140665	-21.08704948	1.0
6	31.54000092	0	0	-0.3945002258	2.110409975	-21.17408562	1.0
7	31.54000092	0	0	-0.3973893821	2.117844582	-21.25240135	1.0
8	31.54000092	0	0	-0.4114137292	2.153335571	-21.62691116	1.0
[LeftHandRing3]
5	29.37700081	0	0	-0.2871613204	1.809219003	-18.03613663	1.0
6	29.37700081	0	0	-0.2899493575	1.817760348	-18.12425995	1.0
7	29.37700081	0	0	-0.2924411893	1.82534802	-18.20261765	1.0
8	29.37700081	0	0	-0.3045604229	1.861553788	-18.57726097	1.0
[LeftHandRing4]
5	26.47500038	0	0	0	0	0	1.0
6	26.47500038	0	0	0	0	0	1.0
7	26.47500038	0	0	0	0	0	1.0
8	26.47500038	0	0	0	0	0	1.0
[LeftHandPinky1]
5	80.77799988	-4.887000084	-38.06099701	-1.771306038	5.439225674	-27.85601425	1.0
6	80.77799988	-4.887000084	-38.06099701	-1.799215794	5.410778999	-28.01255035	1.0
7	80.77799988	-4.887000084	-38.06099701	-1.802747846	5.393161297	-28.02359772	1.0
8	80.77799988	-4.887000084	-38.06099701	-1.774031758	5.433488369	-28.0560112	1.0
[LeftHandPinky2]
5	36	0	0	-0.2924862504	1.825492859	-18.20410347	1.0
6	36	0	0	-0.3094137013	1.87615788	-18.72821617	1.0
7	36	0	0	-0.319265306	1.904948831	-19.02681541	1.0
8	36	0	0	-0.3223778307	1.914021969	-19.12093735	1.0
[LeftHandPinky3]
5	21.14200211	0	0	-0.264321804	1.737549782	-17.29816818	1.0
6	21.14200211	0	0	-0.2805525661	1.788807869	-17.82562637	1.0
7	21.14200211	0	0	-0.2900188565	1.817973614	-18.12645912	1.0
8	21.14200211	0	0	-0.2929959297	1.8271209	-18.22080994	1.0
[LeftHandPinky4]
5	19.75699997	0	0	0	0	0	1.0
6	19.75699997	0	0	0	0	0	1.0
7	19.75699997	0	0	0	0	0	1.0
8	19.75699997	0	0	0	0	0	1.0
[RightShoulder]
5	-45.70000076	109.4620056	-26.28000069	5.248345852	14.71657753	15.61357403	1.0
6	-45.70000076	109.4620056	-26.28000069	5.261345863	14.75131893	15.64854527	1.0
7	-45.70000076	109.4620056	-26.28000069	5.267558098	14.76617241	15.6691494	1.0
8	-45.70000076	109.4620056	-26.28000069	5.253514767	14.82160282	15.57757759	1.0
[RightArm]
5	-105.9280014	-5.248000145	-22.32099915	30.73703384	2.24081111	61.94659042	1.0
6	-105.9280014	-5.248000145	-22.32099915	31.01004982	2.245918989	61.54972458	1.0
7	-105.9280014	-5.248000145	-22.32099915	31.29123116	2.293896914	61.05490494	1.0
8	-105.9280014	-5.248000145	-22.32099915	31.6019249	2.477160931	60.52361298	1.0
[RightForeArm]
5	-278.414978	0	0	-7.781744898e-06	7.43140316	-6.247091733e-06	1.0
6	-278.414978	0	0	-3.008752628e-06	7.914865017	-4.496225301e-06	1.0
7	-278.414978	0	0	-9.692387266e-07	8.628493309	-6.276086879e-06	1.0
8	-278.414978	0	0	-3.015741186e-06	9.558094978	-2.274196731e-06	1.0
[RightHand]
5	-283.2879944	0	0.0009999999311	-20.84724808	2.287412405	6.380417347	1.0
6	-283.2879944	0	0.0009999999311	-21.06871605	2.398160219	6.338212967	1.0
7	-283.2879944	0	0.0009999999311	-21.2818222	2.527148247	6.241759777	1.0
8	-283.2879944	0	0.0009999999311	-21.85210419	2.859445095	5.951558113	1.0
[RightHandPinky1]
5	-80.76699829	-4.885000229	-38.06000137	-1.460550904	-4.554807663	25.70958519	1.0
6	-80.76699829	-4.885000229	-38.06000137	-1.472253919	-4.455954552	25.72348785	1.0
7	-80.76699829	-4.885000229	-38.06000137	-1.459110856	-4.359228134	25.45472145	1.0
8	-80.76699829	-4.885000229	-38.06000137	-1.34967649	-4.322956562	23.95325851	1.0
[RightHandPinky2]
5	-36	0	0.0009999999311	-0.2197250277	-1.410852432	17.72270775	1.0
6	-36	0	0.0009999999311	-0.229314357	-1.440572023	18.10843658	1.0
7	-36	0	0.0009999999311	-0.2390845716	-1.470120311	18.49292564	1.0
8	-36	0	0.0009999999311	-0.2478379011	-1.496408582	18.83521271	1.0
[RightHandPinky3]
5	-21.14200211	0	0	-0.1983604282	-1.342114091	16.81378937	1.0
6	-21.14200211	0	0	-0.2073206455	-1.371412635	17.19229889	1.0
7	-21.14200211	0	0	-0.2164806575	-1.400662184	17.57092857	1.0
8	-21.14200211	0	0	-0.2249125838	-1.427372098	17.91689682	1.0
[RightHandPinky4]
5	-19.75699997	0	0	0	0	0	1.0
6	-19.75699997	0	0	0	0	0	1.0
7	-19.75699997	0	0	0	0	0	1.0
8	-19.75699997	0	0	0	0	0	1.0
[RightHandRing1]
5	-91.03599548	-0.4390000105	-18.65100098	-0.9990392327	-2.826015472	19.77231789	1.0
6	-91.03599548	-0.4390000105	-18.65100098	-1.005268931	-2.697232485	19.87034607	1.0
7	-91.03599548	-0.4390000105	-18.65100098	-1.005347133	-2.478551626	19.87586403	1.0
8	-91.03599548	-0.4390000105	-18.65100098	-0.9566509724	-2.11009407	19.14152145	1.0
[RightHandRing2]
5	-31.54000092	0	0	-0.3117250204	-1.671837568	21.12252426	1.0
6	-31.54000092	0	0	-0.3340337873	-1.728440523	21.87431335	1.0
7	-31.54000092	0	0	-0.368640244	-1.812223673	22.99447823	1.0
8	-31.54000092	0	0	-0.4083993733	-1.903008223	24.2191391	1.0
[RightHandRing3]
5	-29.37700081	0	0	-0.2288677245	-1.439181805	18.07073593	1.0
6	-29.37700081	0	0	-0.2480863482	-1.496786952	18.82107353	1.0
7	-29.37700081	0	0	-0.2781205475	-1.582125545	19.93883514	1.0
8	-29.37700081	0	0	-0.312872231	-1.674618244	21.15949249	1.0
[RightHandRing4]
5	-26.47500038	0	0	0	0	0	1.0
6	-26.47500038	0	0	0	0	0	1.0
7	-26.47500038	0	0	0	0	0	1.0
8	-26.47500038	0	0	0	0	0	1.0
[RightHandMiddle1]
5	-95.32500458	0	0	-0.6166397333	-2.158927917	13.56258488	1.0
6	-95.32500458	0	0	-0.5820426345	-2.252971172	12.95766926	1.0
7	-95.32500458	0	0	-0.5240389705	-2.370420218	11.92689991	1.0
8	-95.32500458	0	0	-0.4189535975	-2.416960239	9.985311508	1.0
[RightHandMiddle2]
5	-36.98199844	0	0	-0.2114721686	-1.384774327	17.36513138	1.0
6	-36.98199844	0	0	-0.2114704251	-1.384750962	17.36477852	1.0
7	-36.98199844	0	0	-0.2115970105	-1.385148764	17.3699913	1.0
8	-36.98199844	0	0	-0.2115608305	-1.385040402	17.36858177	1.0
[RightHandMiddle3]
5	-29.50900078	0	0	-0.2365475148	-1.464532495	18.37417793	1.0
6	-29.50900078	0	0	-0.2365323603	-1.464491248	18.373703	1.0
7	-29.50900078	0	0	-0.2366598397	-1.464886427	18.37880325	1.0
8	-29.50900078	0	0	-0.2366256267	-1.464792013	18.37753105	1.0
[RightHandMiddle4]
5	-28.3390007	0	0.0009999999311	0	0	0	1.0
6	-28.3390007	0	0.0009999999311	0	0	0	1.0
7	-28.3390007	0	0.0009999999311	0	0	0	1.0
8	-28.3390007	0	0.0009999999311	0	0	0	1.0
[RightHandIndex1]
5	-91.08300018	-5.167999744	22.60099792	0.2524952292	1.369397402	5.464211464	1.0
6	-91.08300018	-5.167999744	22.60099792	0.3024897873	1.366914988	4.629058838	1.0
7	-91.08300018	-5.167999744	22.60099792	0.3774174154	1.383643389	3.292362213	1.0
8	-91.08300018	-5.167999744	22.60099792	0.4695103765	1.562097907	1.083763361	1.0
[RightHandIndex2]
5	-36.76399994	0	0	-0.2128041387	-1.388991594	17.41975403	1.0
6	-36.76399994	0	0	-0.2130774111	-1.389878869	17.43120956	1.0
7	-36.76399994	0	0	-0.2126008719	-1.388365626	17.41148376	1.0
8	-36.76399994	0	0	-0.2105634362	-1.381849051	17.32715416	1.0
[RightHandIndex3]
5	-28.83100128	0	0	-0.04590380937	-0.6510836482	8.06560421	1.0
6	-28.83100128	0	0	-0.04603299499	-0.6520055532	8.077062607	1.0
7	-28.83100128	0	0	-0.04581219703	-0.6504198909	8.057385445	1.0
8	-28.83100128	0	0	-0.04485602677	-0.643663764	7.973083496	1.0
[RightHandIndex4]
5	-23.92700005	0	0	0	0	0	1.0
6	-23.92700005	0	0	0	0	0	1.0
7	-23.92700005	0	0	0	0	0	1.0
8	-23.92700005	0	0	0	0	0	1.0
[RightHandThumb1]
5	-24.64799881	-15.72700024	26.82600021	-1.592877507	-0.4845498204	-4.291411877	1.0
6	-24.64799881	-15.72700024	26.82600021	-1.563256502	-0.5788866282	-4.351088524	1.0
7	-24.64799881	-15.72700024	26.82600021	-1.518243909	-0.7110164762	-4.495700836	1.0
8	-24.64799881	-15.72700024	26.82600021	-1.392405152	-1.052831054	-5.037670135	1.0
[RightHandThumb2]
5	-32.29800034	-18.64699936	18.64699936	21.68450928	-23.4185276	-24.00549507	1.0
6	-32.29800034	-18.64699936	18.64699936	21.36098671	-23.14302826	-23.85064125	1.0
7	-32.29800034	-18.64699936	18.64699936	20.97698212	-22.81233025	-23.66924095	1.0
8	-32.29800034	-18.64699936	18.64699936	20.42448044	-22.3271637	-23.4144516	1.0
[RightHandThumb3]
5	-26.52600098	-15.31399918	15.31399918	-14.33788586	-6.913904667	-11.41277409	1.0
6	-26.52600098	-15.31399918	15.31399918	-14.26867867	-7.000302315	-11.43466568	1.0
7	-26.52600098	-15.31399918	15.31399918	-14.17473125	-7.11677742	-11.46445465	1.0
8	-26.52600098	-15.31399918	15.31399918	-13.96483612	-7.373866081	-11.53220367	1.0
[RightHandThumb4]
5	-19.54599953	-11.28499985	11.28499985	0	0	0	1.0
6	-19.54599953	-11.28499985	11.28499985	0	0	0	1.0
7	-19.54599953	-11.28499985	11.28499985	0	0	0	1.0
8	-19.54599953	-11.28499985	11.28499985	0	0	0	1.0
[LeftUpLeg]
5	82.07800293	-67.51699829	-15.99599934	-9.852553368	16.24988556	7.745808601	1.0
6	82.07800293	-67.51699829	-15.99599934	-10.38252449	16.26815033	7.764641285	1.0
7	82.07800293	-67.51699829	-15.99599934	-10.96973991	16.30405045	7.804195404	1.0
8	82.07800293	-67.51699829	-15.99599934	-11.62258434	16.33121109	7.860901356	1.0
[LeftLeg]
5	0	-443.7049866	2.845999956	14.57907581	1.128547311	4.544239521	1.0
6	0	-443.7049866	2.845999956	15.36233997	1.157455802	4.538467407	1.0
7	0	-443.7049866	2.845999956	16.14579964	1.20724225	4.520041466	1.0
8	0	-443.7049866	2.845999956	16.88347626	1.284730911	4.50655365	1.0
[LeftFoot]
5	0	-444.2789917	-29.8219986	-0.3366336823	0.5202070475	-7.101615429	1.0
6	0	-444.2789917	-29.8219986	-0.681012392	0.4913963079	-7.146908283	1.0
7	0	-444.2789917	-29.8219986	-0.8976259232	0.4759615958	-7.222922802	1.0
8	0	-444.2789917	-29.8219986	-0.9392089844	0.4793385267	-7.330162048	1.0
[LeftToeBase]
5	0	-87.28699493	107.1060028	-4.946534157	1.638343974e-06	1.083625762e-06	1.0
6	0	-87.28699493	107.1060028	-4.902329445	5.778901141e-06	-1.354079359e-06	1.0
7	0	-87.28699493	107.1060028	-4.795615196	1.644880498e-08	3.558377557e-07	1.0
8	0	-87.28699493	107.1060028	-4.662742615	6.698203379e-07	4.179662483e-07	1.0
[RightUpLeg]
5	-82.07800293	-67.51699829	-15.99599934	-1.389173269	-10.3586874	3.528871775	1.0
6	-82.07800293	-67.51699829	-15.99599934	-1.819613218	-10.3499279	3.545939445	1.0
7	-82.07800293	-67.51699829	-15.99599934	-2.214333057	-10.33014965	3.58899188	1.0
8	-82.07800293	-67.51699829	-15.99599934	-2.657920122	-10.27729034	3.697300434	1.0
[RightLeg]
5	0	-443.7049866	2.861999989	10.01672554	-9.126648903	-4.788110256	1.0
6	0	-443.7049866	2.861999989	10.59663105	-9.062671661	-4.82486105	1.0
7	0	-443.7049866	2.861999989	10.99312496	-8.99717617	-4.822329044	1.0
8	0	-443.7049866	2.861999989	11.30096436	-8.944824219	-4.838348866	1.0
[RightFoot]
5	0	-444.2770081	-29.83799934	-4.971157551	-1.316209316	3.673050404	1.0
6	0	-444.2770081	-29.83799934	-5.319337845	-1.28135705	3.767234325	1.0
7	0	-444.2770081	-29.83799934	-5.565894127	-1.251155019	3.831951857	1.0
8	0	-444.2770081	-29.83799934	-5.64712429	-1.222131848	3.882761478	1.0
[RightToeBase]
5	0	-87.28699493	107.1060028	-7.339057922	-1.541895358e-06	-7.10633401e-07	1.0
6	0	-87.28699493	107.1060028	-7.328168869	1.542759605e-06	-1.044559497e-07	1.0
7	0	-87.28699493	107.1060028	-7.295469284	3.106611985e-06	-1.437523338e-06	1.0
8	0	-87.28699493	107.1060028	-7.271257877	4.913956218e-06	-1.290243631e-06	1.0
[EndOfFile]
